<?xml version="1.0" encoding="utf-8"?>
<!-- Generator: Adobe Illustrator 22.1.0, SVG Export Plug-In . SVG Version: 6.00 Build 0)  -->
<svg version="1.1" id="Layer_1" xmlns="http://www.w3.org/2000/svg" xmlns:xlink="http://www.w3.org/1999/xlink" x="0px" y="0px"
	 viewBox="0 0 80.9 104.6" style="enable-background:new 0 0 80.9 104.6;" xml:space="preserve">
<style type="text/css">
	.st0{fill:url(#SVGID_1_);}
	.st1{fill:url(#SVGID_2_);}
	.st2{fill:url(#SVGID_3_);}
	.st3{fill:url(#SVGID_4_);}
	.st4{fill:url(#SVGID_5_);}
	.st5{fill:url(#SVGID_6_);}
	.st6{fill:url(#SVGID_7_);}
	.st7{fill:url(#SVGID_8_);}
	.st8{fill:url(#SVGID_9_);}
	.st9{fill:url(#SVGID_10_);}
</style>
<title>Artboard 1</title>
<g>
	<linearGradient id="SVGID_1_" gradientUnits="userSpaceOnUse" x1="-13.2109" y1="-21.8392" x2="49.6164" y2="86.9809">
		<stop  offset="0" style="stop-color:#8C42A1"/>
		<stop  offset="0.3886" style="stop-color:#922C88"/>
		<stop  offset="0.7307" style="stop-color:#A02D6E"/>
		<stop  offset="0.8604" style="stop-color:#F3506F"/>
		<stop  offset="0.9851" style="stop-color:#FCB450"/>
	</linearGradient>
	<path class="st0" d="M19.8,65.5c0.7,1.3,2.2,1.6,3.3,0.7l20.8-15.4c1.2-0.9,1.3-2.4,0.2-3.4L29.5,32.9c-1-1-3-2.1-4.4-2.4L3.5,25.8
		c1.1,4.5,1.9,9.1,2.5,13.8L19.8,65.5z"/>
	<linearGradient id="SVGID_2_" gradientUnits="userSpaceOnUse" x1="-41.7488" y1="-5.3628" x2="21.0785" y2="103.4573">
		<stop  offset="0" style="stop-color:#8C42A1"/>
		<stop  offset="0.3886" style="stop-color:#922C88"/>
		<stop  offset="0.7307" style="stop-color:#A02D6E"/>
		<stop  offset="0.8604" style="stop-color:#F3506F"/>
		<stop  offset="0.9851" style="stop-color:#FCB450"/>
	</linearGradient>
	<path class="st1" d="M9.1,74.4l-4.4-0.8c-0.5,2.7-1.1,5.3-1.9,7.8l6.7-5C10.7,75.6,10.5,74.6,9.1,74.4z"/>
	<linearGradient id="SVGID_3_" gradientUnits="userSpaceOnUse" x1="-34.2383" y1="-9.699" x2="28.589" y2="99.1211">
		<stop  offset="0" style="stop-color:#8C42A1"/>
		<stop  offset="0.3886" style="stop-color:#922C88"/>
		<stop  offset="0.7307" style="stop-color:#A02D6E"/>
		<stop  offset="0.8604" style="stop-color:#F3506F"/>
		<stop  offset="0.9851" style="stop-color:#FCB450"/>
	</linearGradient>
	<path class="st2" d="M15.3,68.1L6.7,52c0,5.5-0.4,11-1.2,16.4l8.4,1.5C15.3,70.2,16,69.4,15.3,68.1z"/>
	<linearGradient id="SVGID_4_" gradientUnits="userSpaceOnUse" x1="-13.8733" y1="-21.4567" x2="48.954" y2="87.3634">
		<stop  offset="0" style="stop-color:#8C42A1"/>
		<stop  offset="0.3886" style="stop-color:#922C88"/>
		<stop  offset="0.7307" style="stop-color:#A02D6E"/>
		<stop  offset="0.8604" style="stop-color:#F3506F"/>
		<stop  offset="0.9851" style="stop-color:#FCB450"/>
	</linearGradient>
	<path class="st3" d="M21.6,24.9L1.9,5.2c-2.4,4-2.6,10.1,0.6,17l18.3,4C22.3,26.5,22.6,25.9,21.6,24.9z"/>
	<linearGradient id="SVGID_5_" gradientUnits="userSpaceOnUse" x1="7.0488" y1="-33.5361" x2="69.8761" y2="75.284">
		<stop  offset="0" style="stop-color:#8C42A1"/>
		<stop  offset="0.3886" style="stop-color:#922C88"/>
		<stop  offset="0.7307" style="stop-color:#A02D6E"/>
		<stop  offset="0.8604" style="stop-color:#F3506F"/>
		<stop  offset="0.9851" style="stop-color:#FCB450"/>
	</linearGradient>
	<path class="st4" d="M35.4,29.3l26.4,5.7c1.4,0.3,3.5-0.1,4.6-1l0.9-0.7c-14.4-11-28.8-21-44.8-29.8c-6.9-4-12.9-4.3-17-2L31,26.9
		C32,28,34,29,35.4,29.3z"/>
	<linearGradient id="SVGID_6_" gradientUnits="userSpaceOnUse" x1="8.2494" y1="-34.2293" x2="71.0767" y2="74.5908">
		<stop  offset="0" style="stop-color:#8C42A1"/>
		<stop  offset="0.3886" style="stop-color:#922C88"/>
		<stop  offset="0.7307" style="stop-color:#A02D6E"/>
		<stop  offset="0.8604" style="stop-color:#F3506F"/>
		<stop  offset="0.9851" style="stop-color:#FCB450"/>
	</linearGradient>
	<path class="st5" d="M58.4,37.7l-18.7-4.1c-1.4-0.3-1.7,0.3-0.7,1.3l9.4,9.4c1,1,2.8,1.1,3.9,0.3l6.5-4.8
		C60,38.9,59.8,38,58.4,37.7z"/>
	<linearGradient id="SVGID_7_" gradientUnits="userSpaceOnUse" x1="-18.2505" y1="-18.9296" x2="44.5769" y2="89.8905">
		<stop  offset="0" style="stop-color:#8C42A1"/>
		<stop  offset="0.3886" style="stop-color:#922C88"/>
		<stop  offset="0.7307" style="stop-color:#A02D6E"/>
		<stop  offset="0.8604" style="stop-color:#F3506F"/>
		<stop  offset="0.9851" style="stop-color:#FCB450"/>
	</linearGradient>
	<path class="st6" d="M27.4,79.8l7.4,14c5.9-3.7,11.7-7.5,17.4-11.5L28.8,78C27.3,77.8,26.7,78.6,27.4,79.8z"/>
	<linearGradient id="SVGID_8_" gradientUnits="userSpaceOnUse" x1="-8.6227" y1="-24.4882" x2="54.2046" y2="84.3319">
		<stop  offset="0" style="stop-color:#8C42A1"/>
		<stop  offset="0.3886" style="stop-color:#922C88"/>
		<stop  offset="0.7307" style="stop-color:#A02D6E"/>
		<stop  offset="0.8604" style="stop-color:#F3506F"/>
		<stop  offset="0.9851" style="stop-color:#FCB450"/>
	</linearGradient>
	<path class="st7" d="M51.6,54.9c-1-1-2.8-1.1-3.9-0.3L26.4,70.3c-1.2,0.9-0.9,1.8,0.5,2l31.2,5.8c3.2-2.3,6.4-4.7,9.5-7.1
		L51.6,54.9z"/>
	<linearGradient id="SVGID_9_" gradientUnits="userSpaceOnUse" x1="16.7775" y1="-39.153" x2="79.6048" y2="69.6671">
		<stop  offset="0" style="stop-color:#8C42A1"/>
		<stop  offset="0.3886" style="stop-color:#922C88"/>
		<stop  offset="0.7307" style="stop-color:#A02D6E"/>
		<stop  offset="0.8604" style="stop-color:#F3506F"/>
		<stop  offset="0.9851" style="stop-color:#FCB450"/>
	</linearGradient>
	<path class="st8" d="M65.6,41.2L56,48.3c-1.2,0.9-1.3,2.4-0.2,3.4l16.1,16.1c10.1-7.4,11.5-17.7,4.9-26.2l-6.5-1.4
		C68.8,39.9,66.7,40.4,65.6,41.2z"/>
	<linearGradient id="SVGID_10_" gradientUnits="userSpaceOnUse" x1="-42.7589" y1="-4.7796" x2="20.0684" y2="104.0405">
		<stop  offset="0" style="stop-color:#8C42A1"/>
		<stop  offset="0.3886" style="stop-color:#922C88"/>
		<stop  offset="0.7307" style="stop-color:#A02D6E"/>
		<stop  offset="0.8604" style="stop-color:#F3506F"/>
		<stop  offset="0.9851" style="stop-color:#FCB450"/>
	</linearGradient>
	<path class="st9" d="M19.1,76.2c-0.3-0.1-1.4,0.6-2.6,1.5L0.3,89.8c-1.7,12.3,8.6,19.3,22.3,11.2c2.6-1.5,5.2-2.9,7.8-4.5
		l-9.5-17.9C20.2,77.4,19.4,76.3,19.1,76.2z"/>
</g>
</svg>
