<?xml version="1.0" encoding="utf-8"?>
<!-- Generator: Adobe Illustrator 22.1.0, SVG Export Plug-In . SVG Version: 6.00 Build 0)  -->
<svg version="1.1" id="Layer_1" xmlns="http://www.w3.org/2000/svg" xmlns:xlink="http://www.w3.org/1999/xlink" x="0px" y="0px"
	 viewBox="0 0 155 50" style="enable-background:new 0 0 155 50;" xml:space="preserve">
<style type="text/css">
	.st0{fill:#FFFFFF;}
</style>
<g>
	<g>
		<path class="st0" d="M10.4,30.4c0.3,0.6,1,0.7,1.5,0.3L21,24c0.5-0.4,0.6-1.1,0.1-1.5L14.7,16c-0.4-0.4-1.3-0.9-1.9-1.1l-9.6-2.1
			c0.5,2,0.9,4,1.1,6.1L10.4,30.4z"/>
		<path class="st0" d="M5.6,34.4L3.7,34c-0.2,1.2-0.5,2.3-0.8,3.5l3-2.2C6.4,34.9,6.3,34.5,5.6,34.4z"/>
		<path class="st0" d="M8.4,31.6l-3.8-7.1c0,2.4-0.2,4.9-0.5,7.2l3.7,0.7C8.4,32.5,8.7,32.2,8.4,31.6z"/>
		<path class="st0" d="M11.2,12.5L2.5,3.8c-1.1,1.8-1.1,4.5,0.3,7.5l8.1,1.8C11.5,13.2,11.6,12.9,11.2,12.5z"/>
		<path class="st0" d="M17.3,14.4L29,17c0.6,0.1,1.5-0.1,2.1-0.4l0.4-0.3C25.1,11.4,18.7,6.9,11.6,3c-3-1.8-5.7-1.9-7.5-0.9
			l11.2,11.2C15.8,13.8,16.7,14.3,17.3,14.4z"/>
		<path class="st0" d="M27.4,18.1l-8.3-1.8c-0.6-0.1-0.8,0.1-0.3,0.6l4.2,4.2c0.4,0.4,1.2,0.5,1.7,0.1l2.9-2.1
			C28.1,18.7,28.1,18.2,27.4,18.1z"/>
		<path class="st0" d="M13.8,36.8L17,43c2.6-1.6,5.2-3.3,7.7-5.1L14.3,36C13.7,35.8,13.5,36.2,13.8,36.8z"/>
		<path class="st0" d="M24.4,25.7c-0.4-0.4-1.2-0.5-1.7-0.1l-9.4,7c-0.5,0.4-0.4,0.8,0.2,0.9L27.3,36c1.4-1,2.8-2.1,4.2-3.2
			L24.4,25.7z"/>
		<path class="st0" d="M30.6,19.7l-4.2,3.1c-0.5,0.4-0.6,1.1-0.1,1.5l7.1,7.1c4.5-3.3,5.1-7.8,2.1-11.6l-2.9-0.6
			C32.1,19.1,31.1,19.3,30.6,19.7z"/>
		<path class="st0" d="M10.1,35.2c-0.1,0-0.6,0.3-1.1,0.6l-7.2,5.3c-0.7,5.4,3.8,8.5,9.9,5c1.2-0.6,2.3-1.3,3.4-2l-4.2-7.9
			C10.6,35.7,10.2,35.2,10.1,35.2z"/>
	</g>
	<g>
		<path class="st0" d="M73.7,24.5H78v8.4c-2.3,1.7-5.8,2.8-8.9,2.8c-6.6,0-11.7-4.8-11.7-11.2c0-6.3,5.1-11.1,11.9-11.1
			c3.3,0,6.6,1.3,8.8,3.2l-2.8,3.5c-1.6-1.5-3.9-2.4-6-2.4c-3.9,0-6.9,3-6.9,6.8c0,3.9,3,6.9,6.9,6.9c1.3,0,2.9-0.5,4.3-1.2V24.5z"
			/>
		<path class="st0" d="M104.2,24.6c0,6.3-5.1,11.2-11.8,11.2s-11.8-4.8-11.8-11.2c0-6.4,5.1-11.1,11.8-11.1S104.2,18.2,104.2,24.6z
			 M85.8,24.6c0,3.8,3.1,6.9,6.8,6.9c3.7,0,6.6-3,6.6-6.9c0-3.8-3-6.8-6.6-6.8C88.9,17.8,85.8,20.7,85.8,24.6z"/>
		<path class="st0" d="M121.6,24.5h4.3v8.4c-2.3,1.7-5.8,2.8-8.9,2.8c-6.6,0-11.7-4.8-11.7-11.2c0-6.3,5.1-11.1,11.9-11.1
			c3.3,0,6.6,1.3,8.8,3.2l-2.8,3.5c-1.6-1.5-3.9-2.4-6-2.4c-3.9,0-6.9,3-6.9,6.8c0,3.9,3,6.9,6.9,6.9c1.3,0,2.9-0.5,4.3-1.2V24.5z"
			/>
		<path class="st0" d="M152.2,24.6c0,6.3-5.1,11.2-11.8,11.2c-6.7,0-11.8-4.8-11.8-11.2c0-6.4,5.1-11.1,11.8-11.1
			C147.1,13.4,152.2,18.2,152.2,24.6z M133.7,24.6c0,3.8,3.1,6.9,6.8,6.9c3.7,0,6.6-3,6.6-6.9c0-3.8-3-6.8-6.6-6.8
			C136.8,17.8,133.7,20.7,133.7,24.6z"/>
	</g>
</g>
</svg>
